<svg width="320" height="239" viewBox="0 0 320 239" fill="none" xmlns="http://www.w3.org/2000/svg">
<path d="M263.248 237.089C262.662 237.089 259.586 237.382 254.02 237.968C248.453 238.261 241.715 238.408 233.805 238.408C227.653 238.408 221.061 238.115 214.03 237.529C206.998 236.943 200.406 235.917 194.254 234.453C188.102 232.695 182.535 230.498 177.555 227.861C172.867 224.931 169.498 221.123 167.448 216.435C167.448 196.22 168.766 177.763 171.403 161.064C174.332 144.072 177.994 128.691 182.389 114.921C187.076 100.859 192.203 88.2612 197.77 77.1284C203.629 65.9956 209.635 56.1812 215.787 47.6851C229.85 27.7632 246.11 11.9429 264.567 0.224121C271.598 1.68896 278.483 3.59326 285.221 5.93701C291.08 8.28076 297.086 11.2104 303.239 14.7261C309.391 17.9487 314.518 22.3433 318.619 27.9097L319.059 34.9409C311.149 41.9722 303.824 52.3726 297.086 66.1421C290.348 79.6187 284.342 95.439 279.069 113.603C274.088 131.767 270.133 151.396 267.203 172.49C264.567 193.583 263.248 215.117 263.248 237.089ZM96.2561 237.089C95.6702 237.089 92.594 237.382 87.0276 237.968C81.4612 238.261 74.7229 238.408 66.8127 238.408C60.6604 238.408 54.0686 238.115 47.0374 237.529C40.0061 236.943 33.4143 235.917 27.262 234.453C21.1096 232.695 15.5432 230.498 10.5627 227.861C5.87524 224.931 2.5061 221.123 0.455322 216.435C0.455322 196.22 1.77368 177.763 4.4104 161.064C7.34009 144.072 11.0022 128.691 15.3967 114.921C20.0842 100.859 25.2112 88.2612 30.7776 77.1284C36.637 65.9956 42.6428 56.1812 48.7952 47.6851C62.8577 27.7632 79.1174 11.9429 97.5745 0.224121C104.606 1.68896 111.49 3.59326 118.229 5.93701C124.088 8.28076 130.094 11.2104 136.246 14.7261C142.399 17.9487 147.526 22.3433 151.627 27.9097L152.067 34.9409C144.156 41.9722 136.832 52.3726 130.094 66.1421C123.356 79.6187 117.35 95.439 112.076 113.603C107.096 131.767 103.141 151.396 100.211 172.49C97.5745 193.583 96.2561 215.117 96.2561 237.089Z" fill="#E4E4E4"/>
</svg>
